squats_1_grf
version=1
nRows=30
nColumns=19
inDegrees=no
endheader
time	ground_force_right_vx	ground_force_right_vy	ground_force_right_vz	ground_force_right_px	ground_force_right_py	ground_force_right_pz	ground_force_right_mx	ground_force_right_my	ground_force_right_mz	ground_force_left_vx	ground_force_left_vy	ground_force_left_vz	ground_force_left_px	ground_force_left_py	ground_force_left_pz	ground_force_left_mx	ground_force_left_my	ground_force_left_mz
     32.69000000	     -4.38486542	    228.25161605	     20.48798489	     -3.48215591	      0.00733952	      2.28470010	     -0.00577250	      1.98039649	      0.00896674	     -8.82348128	    313.88429791	    -38.49302256	     -3.49322060	      0.00789748	      2.68486379	      0.00093544	     -0.28154790	      0.00048890
     32.69100000	     -4.38819221	    227.83681419	     20.45163561	     -3.48213456	      0.00733923	      2.28477743	     -0.00576385	      1.97743044	      0.00895331	     -8.68770325	    313.65264404	    -38.45761652	     -3.49319039	      0.00789755	      2.68484540	      0.00093369	     -0.28101839	      0.00048798
     32.69200000	     -4.39423104	    227.40959730	     20.41464809	     -3.48210571	      0.00733896	      2.28485575	     -0.00575570	      1.97463492	      0.00894066	     -8.54791183	    313.40952326	    -38.41941030	     -3.49315804	      0.00789762	      2.68482628	      0.00093171	     -0.28042250	      0.00048695
     32.69300000	     -4.40327888	    226.97151550	     20.37723462	     -3.48206892	      0.00733871	      2.28493470	     -0.00574813	      1.97203718	      0.00892889	     -8.40478587	    313.15517920	    -38.37835766	     -3.49312350	      0.00789770	      2.68480647	      0.00092954	     -0.27977120	      0.00048582
     32.69400000	     -4.41562141	    226.52418804	     20.33961736	     -3.48202376	      0.00733848	      2.28501391	     -0.00574121	      1.96966308	      0.00891814	     -8.25904979	    312.88987494	    -38.33442785	     -3.49308676	      0.00789779	      2.68478606	      0.00092724	     -0.27907739	      0.00048461
     32.69500000	     -4.43152769	    226.06928691	     20.30202668	     -3.48196988	      0.00733828	      2.28509303	     -0.00573501	      1.96753675	      0.00890852	     -8.11146645	    312.61388799	    -38.28760725	     -3.49304778	      0.00789788	      2.68476511	      0.00092484	     -0.27835578	      0.00048336
     32.69600000	     -4.45124453	    225.60852067	     20.26469971	     -3.48190699	      0.00733811	      2.28517172	     -0.00572960	      1.96568030	      0.00890011	     -7.96282918	    312.32750589	    -38.23790084	     -3.49300654	      0.00789798	      2.68474370	      0.00092240	     -0.27762288	      0.00048209
     32.69700000	     -4.47499086	    225.14361896	     20.22787893	     -3.48183485	      0.00733796	      2.28524965	     -0.00572503	      1.96411355	      0.00889302	     -7.81395319	    312.03102264	    -38.18533371	     -3.49296306	      0.00789809	      2.68472192	      0.00091999	     -0.27689691	      0.00048083
     32.69800000	     -4.50295202	    224.67631776	     20.19181096	     -3.48175332	      0.00733785	      2.28532654	     -0.00572136	      1.96285382	      0.00888731	     -7.66566645	    311.72473609	    -38.12995246	     -3.49291731	      0.00789820	      2.68469985	      0.00091767	     -0.27619769	      0.00047961
     32.69900000	     -4.53527415	    224.20834590	     20.15674549	     -3.48166230	      0.00733778	      2.28540209	     -0.00571863	      1.96191568	      0.00888307	     -7.51880012	    311.40894623	    -38.07182645	     -3.49286931	      0.00789832	      2.68467758	      0.00091550	     -0.27554655	      0.00047848
     32.70000000	     -4.57205880	    223.74141281	     20.12293443	     -3.48156178	      0.00733773	      2.28547606	     -0.00571686	      1.96131086	      0.00888033	     -7.37417867	    311.08395447	    -38.01104908	     -3.49281909	      0.00789845	      2.68465520	      0.00091358	     -0.27496616	      0.00047747
     32.70100000	     -4.61335773	    223.27719779	     20.09063115	     -3.48145183	      0.00733773	      2.28554823	     -0.00571610	      1.96104810	      0.00887914	     -7.23260997	    310.75006397	    -37.94773880	     -3.49276666	      0.00789859	      2.68463281	      0.00091196	     -0.27448039	      0.00047663
     32.70200000	     -4.65916822	    222.81734100	     20.06009001	     -3.48133257	      0.00733776	      2.28561840	     -0.00571635	      1.96113315	      0.00887952	     -7.09487538	    310.40758073	    -37.88204008	     -3.49271206	      0.00789873	      2.68461049	      0.00091075	     -0.27411409	      0.00047599
     32.70300000	     -4.70942891	    222.36343593	     20.03156595	     -3.48120420	      0.00733782	      2.28568641	     -0.00571762	      1.96156874	      0.00888150	     -6.96172013	    310.05681574	    -37.81412420	     -3.49265534	      0.00789888	      2.68458835	      0.00091001	     -0.27389287	      0.00047561
     32.70400000	     -4.76401630	    221.91702369	     20.00531427	     -3.48106699	      0.00733793	      2.28575210	     -0.00571991	      1.96235467	      0.00888505	     -6.83384410	    309.69808775	    -37.74418985	     -3.49259653	      0.00789904	      2.68456647	      0.00090984	     -0.27384282	      0.00047552
     32.70500000	     -4.82274200	    221.47958883	     19.98159050	     -3.48092127	      0.00733807	      2.28581537	     -0.00572321	      1.96348786	      0.00889018	     -6.71189326	    309.33172670	    -37.67246356	     -3.49253570	      0.00789920	      2.68454496	      0.00091033	     -0.27399017	      0.00047578
     32.70600000	     -4.88535104	    221.05255669	     19.96065037	     -3.48076741	      0.00733824	      2.28587612	     -0.00572751	      1.96496258	      0.00889686	     -6.59645188	    308.95807775	    -37.59919983	     -3.49247290	      0.00789937	      2.68452389	      0.00091157	     -0.27436106	      0.00047642
     32.70700000	     -4.95152101	    220.63729207	     19.94274986	     -3.48060584	      0.00733845	      2.28593429	     -0.00573278	      1.96677063	      0.00890505	     -6.48803564	    308.57750554	    -37.52468110	     -3.49240819	      0.00789955	      2.68450337	      0.00091363	     -0.27498106	      0.00047750
     32.70800000	     -5.02086240	    220.23509925	     19.92814518	     -3.48043704	      0.00733869	      2.28598981	     -0.00573899	      1.96890157	      0.00891470	     -6.38708581	    308.19039873	    -37.44921733	     -3.49234165	      0.00789974	      2.68448348	      0.00091660	     -0.27587491	      0.00047905
     32.70900000	     -5.09291997	    219.84722290	     19.91709278	     -3.48026151	      0.00733896	      2.28604266	     -0.00574611	      1.97134303	      0.00892575	     -6.29396453	    307.79717457	    -37.37314537	     -3.49227333	      0.00789993	      2.68446431	      0.00092055	     -0.27706608	      0.00048112
     32.71000000	     -5.16717534	    219.47484986	     19.90984930	     -3.48007980	      0.00733926	      2.28609281	     -0.00575409	      1.97408101	      0.00893815	     -6.20895119	    307.39828339	    -37.29682796	     -3.49220332	      0.00790013	      2.68444595	      0.00092557	     -0.27857647	      0.00048374
     32.71100000	     -5.24305069	    219.11911155	     19.90667130	     -3.47989246	      0.00733959	      2.28614027	     -0.00576289	      1.97710026	      0.00895182	     -6.13224012	    306.99421298	    -37.22065240	     -3.49213167	      0.00790034	      2.68442847	      0.00093172	     -0.28042607	      0.00048695
     32.71200000	     -5.31991359	    218.78108664	     19.90781493	     -3.47970007	      0.00733995	      2.28618503	     -0.00577246	      1.98038464	      0.00896669	     -6.06393931	    306.58549256	    -37.14502897	     -3.49205845	      0.00790055	      2.68441196	      0.00093905	     -0.28263263	      0.00049079
     32.71300000	     -5.39708295	    218.46180386	     19.91353530	     -3.47950322	      0.00734033	      2.28622713	     -0.00578276	      1.98391755	      0.00898268	     -6.00407043	    306.17269652	    -37.07038898	     -3.49198372	      0.00790078	      2.68439649	      0.00094762	     -0.28521143	      0.00049526
     32.71400000	     -5.47383606	    218.16224478	     19.92408568	     -3.47930249	      0.00734074	      2.28626657	     -0.00579373	      1.98768230	      0.00899973	     -5.95256987	    305.75644752	    -36.99718258	     -3.49190755	      0.00790100	      2.68438214	      0.00095746	     -0.28817507	      0.00050041
     32.71500000	     -5.54941656	    217.88334615	     19.93971639	     -3.47909847	      0.00734117	      2.28630339	     -0.00580533	      1.99166257	      0.00901775	     -5.90929089	    305.33741928	    -36.92587630	     -3.49183000	      0.00790124	      2.68436898	      0.00096862	     -0.29153327	      0.00050624
     32.71600000	     -5.62304338	    217.62600190	     19.96067344	     -3.47889173	      0.00734162	      2.28633763	     -0.00581752	      1.99584276	      0.00903668	     -5.87400666	    304.91633854	    -36.85695027	     -3.49175111	      0.00790148	      2.68435706	      0.00098111	     -0.29529276	      0.00051277
     32.71700000	     -5.69392049	    217.39106447	     19.98719686	     -3.47868284	      0.00734208	      2.28636933	     -0.00583024	      2.00020846	      0.00905645	     -5.84641421	    304.49398666	    -36.79089538	     -3.49167094	      0.00790173	      2.68434645	      0.00099495	     -0.29945721	      0.00052000
     32.71800000	     -5.76124725	    217.17934555	     20.01951875	     -3.47847232	      0.00734256	      2.28639852	     -0.00584347	      2.00474677	      0.00907699	     -5.82613917	    304.07120028	    -36.72821006	     -3.49158953	      0.00790198	      2.68433720	      0.00101013	     -0.30402725	      0.00052794
     32.71900000	     -5.82422936	    216.99161601	     20.05786105	     -3.47826069	      0.00734306	      2.28642527	     -0.00585717	      2.00944664	      0.00909827	     -5.81274107	    303.64887151	    -36.66939703	     -3.49150692	      0.00790224	      2.68432936	      0.00102666	     -0.30900041	      0.00053657
